<svg width="303" height="102" viewBox="0 0 303 102" fill="none" xmlns="http://www.w3.org/2000/svg">
<path fill-rule="evenodd" clip-rule="evenodd" d="M114.032 17.1847C110.702 15.3197 98.1794 0 78.9964 0.26643V15.8526C110.968 18.2504 109.902 57.4156 78.9964 58.7478V73.4014H150V0C142.806 0.399645 135.48 2.53108 129.085 5.3286C121.625 8.52575 119.094 11.5897 114.165 17.0515L114.032 17.1847Z" fill="#A64533"/>
<path fill-rule="evenodd" clip-rule="evenodd" d="M0 73.2685L71.0036 73.4017V58.7481C65.1421 57.8156 58.881 57.416 54.4849 52.8867C50.0888 48.4906 47.6909 44.0945 47.5577 37.4337C47.4245 30.773 50.0888 26.2437 54.4849 21.9808C59.2806 17.3183 64.7425 16.7854 71.0036 15.5865V0.133541C64.6092 -0.399319 56.4831 2.66462 51.0213 5.59535C42.0959 10.3911 41.5631 13.0554 36.1012 17.0518C34.9023 16.1193 34.103 14.5208 33.0373 13.455C26.2433 5.995 8.9254 -0.266104 0 0.133541V73.2685Z" fill="#A64533"/>
<path fill-rule="evenodd" clip-rule="evenodd" d="M71.0036 50.7549V23.8455C63.0107 23.0462 56.2167 29.0409 56.0835 37.0338C55.9503 45.0266 62.8774 51.5542 71.0036 50.6217V50.7549Z" fill="#A64533"/>
<path fill-rule="evenodd" clip-rule="evenodd" d="M78.8632 50.8881C98.7123 50.8881 99.1119 23.9787 78.8632 23.8455V50.8881Z" fill="#A64533"/>
<path d="M3.6936 82.4258V95.4285H8.7085V82.4258H10.6204V95.4285H15.6052V82.4258H17.5271V97H1.76172V82.4258H3.6936ZM20.9905 97V82.4258H25.7551C27.3367 82.4258 28.5245 82.7528 29.3186 83.4067C30.1194 84.0607 30.5198 85.0283 30.5198 86.3096C30.5198 86.9902 30.3263 87.5942 29.9392 88.1213C29.5522 88.6418 29.025 89.0456 28.3577 89.3325C29.1451 89.5527 29.7657 89.9731 30.2195 90.5938C30.6799 91.2077 30.9102 91.9417 30.9102 92.7959C30.9102 94.1038 30.4864 95.1315 29.6389 95.8789C28.7914 96.6263 27.5936 97 26.0454 97H20.9905ZM22.9124 90.1833V95.4285H26.0854C26.9797 95.4285 27.6837 95.1982 28.1975 94.7378C28.718 94.2707 28.9783 93.63 28.9783 92.8159C28.9783 91.0609 28.024 90.1833 26.1155 90.1833H22.9124ZM22.9124 88.6418H25.8152C26.656 88.6418 27.3267 88.4316 27.8271 88.0112C28.3343 87.5908 28.5879 87.0203 28.5879 86.2996C28.5879 85.4988 28.3543 84.9182 27.8872 84.5579C27.4201 84.1908 26.7094 84.0073 25.7551 84.0073H22.9124V88.6418ZM42.001 90.2634H35.6848V95.4285H43.022V97H33.7629V82.4258H42.9219V84.0073H35.6848V88.6919H42.001V90.2634ZM54.6033 82.4258H56.5251V97H54.6033V85.769L47.4263 97H45.4944V82.4258H47.4263V93.6567L54.6033 82.4258ZM54.0627 78.8022C54.0627 79.6097 53.7858 80.2603 53.2319 80.7542C52.6847 81.2413 51.964 81.4849 51.0698 81.4849C50.1756 81.4849 49.4516 81.238 48.8977 80.7441C48.3438 80.2503 48.0669 79.603 48.0669 78.8022H49.5784C49.5784 79.2694 49.7052 79.6364 49.9587 79.9033C50.2123 80.1636 50.5827 80.2937 51.0698 80.2937C51.5369 80.2937 51.9006 80.1636 52.1609 79.9033C52.4278 79.6431 52.5613 79.276 52.5613 78.8022H54.0627ZM71.2295 97H69.2976V90.2634H61.9504V97H60.0286V82.4258H61.9504V88.6919H69.2976V82.4258H71.2295V97ZM76.6548 88.3716H80.2783C81.7998 88.3916 82.9876 88.782 83.8418 89.5427C84.696 90.3035 85.123 91.3378 85.123 92.6458C85.123 93.9604 84.6926 95.0081 83.8318 95.7888C82.9709 96.5696 81.7965 96.9733 80.3083 97H74.7329V82.4258H76.6548V88.3716ZM76.6548 89.9531V95.4285H80.1682C81.1225 95.4285 81.8632 95.1749 82.3904 94.6677C82.9242 94.1606 83.1912 93.4799 83.1912 92.6257C83.1912 91.8049 82.9342 91.1576 82.4204 90.6838C81.9132 90.21 81.1892 89.9665 80.2483 89.9531H76.6548ZM88.8066 97H86.8848V82.4258H88.8066V97ZM101.569 82.4258H103.491V97H101.569V85.769L94.3921 97H92.4602V82.4258H94.3921V93.6567L101.569 82.4258ZM101.029 78.8022C101.029 79.6097 100.752 80.2603 100.198 80.7542C99.6506 81.2413 98.9299 81.4849 98.0356 81.4849C97.1414 81.4849 96.4174 81.238 95.8635 80.7441C95.3097 80.2503 95.0327 79.603 95.0327 78.8022H96.5442C96.5442 79.2694 96.671 79.6364 96.9246 79.9033C97.1781 80.1636 97.5485 80.2937 98.0356 80.2937C98.5028 80.2937 98.8665 80.1636 99.1267 79.9033C99.3936 79.6431 99.5271 79.276 99.5271 78.8022H101.029ZM112.139 82.4258H114.071V95.4285H121.258V82.4258H123.18V95.3884H124.712L124.531 100.513H122.8V97H112.139V82.4258ZM135.312 90.2634H128.996V95.4285H136.333V97H127.074V82.4258H136.233V84.0073H128.996V88.6919H135.312V90.2634ZM143.48 88.0112L146.973 82.4258H149.236L144.631 89.6528L149.346 97H147.063L143.48 91.3145L139.876 97H137.604L142.329 89.6528L137.714 82.4258H139.967L143.48 88.0112Z" fill="#A64533"/>
<path d="M169.225 7.42578L172.969 17.9961L176.692 7.42578H180.636V22H177.623V18.0161L177.924 11.1394L173.99 22H171.928L168.004 11.1494L168.304 18.0161V22H165.301V7.42578H169.225ZM195.23 15.0432C195.23 16.4779 194.977 17.7358 194.47 18.8169C193.963 19.8979 193.235 20.7321 192.288 21.3193C191.347 21.9066 190.266 22.2002 189.044 22.2002C187.837 22.2002 186.759 21.9099 185.811 21.3293C184.864 20.7488 184.13 19.9213 183.609 18.8469C183.089 17.7659 182.825 16.5247 182.818 15.1233V14.4026C182.818 12.9679 183.075 11.7066 183.589 10.6189C184.11 9.5245 184.84 8.68701 185.781 8.10645C186.729 7.51921 187.81 7.22559 189.024 7.22559C190.239 7.22559 191.317 7.51921 192.258 8.10645C193.205 8.68701 193.936 9.5245 194.45 10.6189C194.97 11.7066 195.23 12.9645 195.23 14.3926V15.0432ZM192.188 14.3826C192.188 12.8544 191.914 11.6933 191.367 10.8992C190.819 10.1051 190.039 9.70801 189.024 9.70801C188.017 9.70801 187.239 10.1017 186.692 10.8892C186.145 11.6699 185.868 12.8177 185.861 14.3325V15.0432C185.861 16.5313 186.135 17.6858 186.682 18.5066C187.229 19.3274 188.017 19.7378 189.044 19.7378C190.052 19.7378 190.826 19.3441 191.367 18.5566C191.907 17.7625 192.181 16.6081 192.188 15.0933V14.3826ZM208.854 17.1453C208.74 18.7135 208.16 19.948 207.112 20.8489C206.071 21.7498 204.696 22.2002 202.988 22.2002C201.12 22.2002 199.648 21.5729 198.574 20.3184C197.506 19.0571 196.972 17.3288 196.972 15.1333V14.2424C196.972 12.8411 197.219 11.6065 197.713 10.5388C198.207 9.47111 198.911 8.65365 199.825 8.08643C200.746 7.51253 201.814 7.22559 203.028 7.22559C204.71 7.22559 206.064 7.67603 207.092 8.5769C208.12 9.47778 208.714 10.7424 208.874 12.3706H205.871C205.797 11.4297 205.534 10.749 205.08 10.3286C204.633 9.90153 203.949 9.68799 203.028 9.68799C202.027 9.68799 201.276 10.0483 200.776 10.769C200.282 11.4831 200.028 12.5942 200.015 14.1023V15.2034C200.015 16.7782 200.252 17.9294 200.726 18.6567C201.206 19.3841 201.96 19.7478 202.988 19.7478C203.916 19.7478 204.606 19.5376 205.06 19.1172C205.521 18.6901 205.784 18.0328 205.851 17.1453H208.854ZM215.58 16.0442H213.849V22H210.846V7.42578H213.849V13.2615H215.22L218.783 7.42578H222.447L217.953 14.3225L222.917 22H219.334L215.58 16.0442ZM235.73 15.0432C235.73 16.4779 235.476 17.7358 234.969 18.8169C234.462 19.8979 233.735 20.7321 232.787 21.3193C231.846 21.9066 230.765 22.2002 229.544 22.2002C228.336 22.2002 227.258 21.9099 226.311 21.3293C225.363 20.7488 224.629 19.9213 224.109 18.8469C223.588 17.7659 223.325 16.5247 223.318 15.1233V14.4026C223.318 12.9679 223.575 11.7066 224.089 10.6189C224.609 9.5245 225.34 8.68701 226.281 8.10645C227.228 7.51921 228.309 7.22559 229.524 7.22559C230.738 7.22559 231.816 7.51921 232.757 8.10645C233.705 8.68701 234.435 9.5245 234.949 10.6189C235.47 11.7066 235.73 12.9645 235.73 14.3926V15.0432ZM232.687 14.3826C232.687 12.8544 232.413 11.6933 231.866 10.8992C231.319 10.1051 230.538 9.70801 229.524 9.70801C228.516 9.70801 227.739 10.1017 227.192 10.8892C226.644 11.6699 226.368 12.8177 226.361 14.3325V15.0432C226.361 16.5313 226.634 17.6858 227.182 18.5066C227.729 19.3274 228.516 19.7378 229.544 19.7378C230.552 19.7378 231.326 19.3441 231.866 18.5566C232.407 17.7625 232.68 16.6081 232.687 15.0933V14.3826ZM237.912 22V7.42578H243.017C244.785 7.42578 246.127 7.76611 247.041 8.44678C247.955 9.12077 248.412 10.1117 248.412 11.4197C248.412 12.1337 248.229 12.7643 247.862 13.3115C247.495 13.8521 246.984 14.2491 246.33 14.5027C247.078 14.6895 247.665 15.0666 248.092 15.6338C248.526 16.201 248.743 16.895 248.743 17.7158C248.743 19.1172 248.296 20.1782 247.401 20.8989C246.507 21.6196 245.233 21.9867 243.578 22H237.912ZM240.915 15.6538V19.5876H243.488C244.195 19.5876 244.745 19.4208 245.139 19.0872C245.54 18.7468 245.74 18.2797 245.74 17.6858C245.74 16.3512 245.049 15.6738 243.668 15.6538H240.915ZM240.915 13.5317H243.137C244.652 13.505 245.409 12.9011 245.409 11.72C245.409 11.0593 245.216 10.5855 244.829 10.2986C244.448 10.005 243.845 9.85815 243.017 9.85815H240.915V13.5317ZM262.446 17.1453C262.333 18.7135 261.752 19.948 260.704 20.8489C259.663 21.7498 258.289 22.2002 256.58 22.2002C254.712 22.2002 253.24 21.5729 252.166 20.3184C251.098 19.0571 250.564 17.3288 250.564 15.1333V14.2424C250.564 12.8411 250.811 11.6065 251.305 10.5388C251.799 9.47111 252.503 8.65365 253.417 8.08643C254.338 7.51253 255.406 7.22559 256.62 7.22559C258.302 7.22559 259.657 7.67603 260.684 8.5769C261.712 9.47778 262.306 10.7424 262.466 12.3706H259.463C259.39 11.4297 259.126 10.749 258.672 10.3286C258.225 9.90153 257.541 9.68799 256.62 9.68799C255.619 9.68799 254.869 10.0483 254.368 10.769C253.874 11.4831 253.621 12.5942 253.607 14.1023V15.2034C253.607 16.7782 253.844 17.9294 254.318 18.6567C254.799 19.3841 255.553 19.7478 256.58 19.7478C257.508 19.7478 258.199 19.5376 258.652 19.1172C259.113 18.6901 259.376 18.0328 259.443 17.1453H262.446ZM269.173 16.0442H267.441V22H264.438V7.42578H267.441V13.2615H268.812L272.376 7.42578H276.039L271.545 14.3225L276.51 22H272.926L269.173 16.0442ZM285.899 18.9971H280.634L279.633 22H276.44L281.865 7.42578H284.648L290.103 22H286.91L285.899 18.9971ZM281.445 16.5647H285.088L283.256 11.1094L281.445 16.5647ZM298.201 22V16.7449H295.759L293.126 22H289.883L292.996 15.7839C291.494 14.9565 290.744 13.6719 290.744 11.9302C290.744 10.5021 291.211 9.39771 292.145 8.61694C293.079 7.83618 294.384 7.43913 296.059 7.42578H301.214V22H298.201ZM293.747 12.1504C293.747 12.9645 293.943 13.5551 294.337 13.9221C294.738 14.2891 295.335 14.4727 296.129 14.4727H298.201V9.85815H296.129C294.541 9.85815 293.747 10.6222 293.747 12.1504ZM173.86 32.7271H174.04C175.181 32.7271 176.212 32.9806 177.133 33.4878C178.06 33.9883 178.781 34.7023 179.295 35.6299C179.809 36.5575 180.066 37.6118 180.066 38.793C180.066 40.5413 179.505 41.9694 178.384 43.0771C177.27 44.1849 175.761 44.7388 173.86 44.7388V46.6006H170.967V44.7388H170.777C169.622 44.7388 168.581 44.4919 167.654 43.998C166.726 43.4976 166.005 42.7969 165.491 41.896C164.984 40.9951 164.731 39.9674 164.731 38.813C164.731 37.6452 164.984 36.6008 165.491 35.6799C165.999 34.759 166.709 34.0417 167.624 33.5278C168.538 33.0073 169.559 32.7404 170.687 32.7271H170.967V30.8252H173.86V32.7271ZM170.777 35.2195C169.782 35.2195 168.998 35.5331 168.424 36.1604C167.857 36.7877 167.573 37.6719 167.573 38.813C167.573 39.8807 167.857 40.7215 168.424 41.3354C168.992 41.9427 169.789 42.2463 170.817 42.2463H170.967V35.2195H170.777ZM173.86 35.2195V42.2463H174.06C175.041 42.2463 175.812 41.9394 176.372 41.3254C176.939 40.7048 177.223 39.8607 177.223 38.793C177.223 37.6785 176.946 36.8044 176.392 36.1704C175.838 35.5365 175.044 35.2195 174.01 35.2195H173.86ZM190.266 42.9971H185L184 46H180.806L186.232 31.4258H189.014L194.47 46H191.277L190.266 42.9971ZM185.811 40.5647H189.455L187.623 35.1094L185.811 40.5647ZM205.34 33.8582H198.834V36.6809H201.176C202.891 36.6809 204.249 37.098 205.25 37.9321C206.258 38.7596 206.762 39.8774 206.762 41.2854C206.762 42.7001 206.261 43.8379 205.26 44.6987C204.266 45.5529 202.941 45.9867 201.286 46H195.801V31.4258H205.34V33.8582ZM198.834 39.1033V43.5876H201.226C201.994 43.5876 202.604 43.3774 203.058 42.957C203.519 42.5366 203.749 41.9727 203.749 41.2654C203.749 40.6047 203.529 40.0842 203.088 39.7039C202.654 39.3168 202.057 39.1166 201.296 39.1033H198.834ZM211.687 40.865V46H208.684V31.4258H214.369C215.464 31.4258 216.424 31.626 217.252 32.0264C218.086 32.4268 218.727 32.9973 219.174 33.738C219.621 34.4721 219.844 35.3096 219.844 36.2505C219.844 37.6785 219.354 38.8063 218.373 39.6338C217.399 40.4546 216.047 40.865 214.319 40.865H211.687ZM211.687 38.4326H214.369C215.163 38.4326 215.767 38.2458 216.181 37.8721C216.601 37.4984 216.812 36.9645 216.812 36.2705C216.812 35.5565 216.601 34.9792 216.181 34.5388C215.76 34.0984 215.18 33.8715 214.439 33.8582H211.687V38.4326ZM230.655 31.4258H233.668V46H230.655V36.3206L224.819 46H221.816V31.4258H224.819V41.1252L230.655 31.4258ZM241.025 40.0442H239.293V46H236.291V31.4258H239.293V37.2615H240.665L244.228 31.4258H247.892L243.397 38.3225L248.362 46H244.779L241.025 40.0442ZM257.751 42.9971H252.486L251.485 46H248.292L253.718 31.4258H256.5L261.956 46H258.762L257.751 42.9971ZM253.297 40.5647H256.941L255.109 35.1094L253.297 40.5647ZM169.225 55.4258L172.969 65.9961L176.692 55.4258H180.636V70H177.623V66.0161L177.924 59.1394L173.99 70H171.928L168.004 59.1494L168.304 66.0161V70H165.301V55.4258H169.225ZM192.027 63.6838H186.262V67.5876H193.028V70H183.259V55.4258H193.008V57.8582H186.262V61.3315H192.027V63.6838ZM204.299 57.8582H197.793V60.6809H200.135C201.85 60.6809 203.208 61.098 204.209 61.9321C205.217 62.7596 205.721 63.8774 205.721 65.2854C205.721 66.7001 205.22 67.8379 204.219 68.6987C203.225 69.5529 201.9 69.9867 200.245 70H194.76V55.4258H204.299V57.8582ZM197.793 63.1033V67.5876H200.185C200.953 67.5876 201.563 67.3774 202.017 66.957C202.478 66.5366 202.708 65.9727 202.708 65.2654C202.708 64.6047 202.488 64.0842 202.047 63.7039C201.613 63.3168 201.016 63.1166 200.255 63.1033H197.793ZM216.411 63.6838H210.646V67.5876H217.412V70H207.643V55.4258H217.392V57.8582H210.646V61.3315H216.411V63.6838ZM231.025 55.4258V70H228.012V57.8582H224.129L223.888 63.0032C223.788 64.7382 223.568 66.1062 223.228 67.1072C222.887 68.1015 222.39 68.8322 221.736 69.2993C221.082 69.7598 220.188 69.9933 219.054 70H218.273V67.5876L218.773 67.5376C219.528 67.4375 220.065 67.0037 220.385 66.2363C220.712 65.4622 220.919 64.0876 221.006 62.1123L221.256 55.4258H231.025ZM242.386 55.4258H245.399V70H242.386V60.3206L236.551 70H233.548V55.4258H236.551V65.1252L242.386 55.4258Z" fill="#A64533"/>
</svg>
